<svg width="0" height="0" class="hidden">
  <symbol fill="none" xmlns="http://www.w3.org/2000/svg" viewBox="0 0 24 24" id="Alarmclock_light">
    <circle cx="12" cy="13" r="7" stroke="currentColor"></circle>
    <path d="M5 5L3 7" stroke="currentColor" stroke-linecap="round"></path>
    <path d="M19 5L21 7" stroke="currentColor" stroke-linecap="round"></path>
    <path d="M9 11L11.8093 12.8729C11.9172 12.9448 12.0622 12.9223 12.1432 12.821L14 10.5" stroke="currentColor" stroke-linecap="round"></path>
  </symbol>
  <symbol fill="none" xmlns="http://www.w3.org/2000/svg" viewBox="0 0 24 24" id="Group_light">
    <circle cx="12" cy="8" r="2.5" stroke="currentColor" stroke-linecap="round"></circle>
    <path d="M13.7679 6.5C13.9657 6.15743 14.2607 5.88121 14.6154 5.70625C14.9702 5.5313 15.3689 5.46548 15.7611 5.51711C16.1532 5.56874 16.5213 5.73551 16.8187 5.99632C17.1161 6.25713 17.3295 6.60028 17.4319 6.98236C17.5342 7.36445 17.521 7.76831 17.3939 8.14288C17.2667 8.51745 17.0313 8.8459 16.7175 9.08671C16.4037 9.32751 16.0255 9.46985 15.6308 9.49572C15.2361 9.52159 14.8426 9.42983 14.5 9.23205" stroke="currentColor"></path>
    <path d="M10.2321 6.5C10.0343 6.15743 9.73935 5.88121 9.38458 5.70625C9.02981 5.5313 8.63113 5.46548 8.23895 5.51711C7.84677 5.56874 7.47871 5.73551 7.18131 5.99632C6.88391 6.25713 6.67053 6.60028 6.56815 6.98236C6.46577 7.36445 6.47899 7.76831 6.60614 8.14288C6.73329 8.51745 6.96866 8.8459 7.28248 9.08671C7.5963 9.32751 7.97448 9.46985 8.36919 9.49572C8.76391 9.52159 9.15743 9.42983 9.5 9.23205" stroke="currentColor"></path>
    <path d="M12 12.5C16.0802 12.5 17.1335 15.8022 17.4054 17.507C17.4924 18.0524 17.0523 18.5 16.5 18.5H7.5C6.94771 18.5 6.50763 18.0524 6.59461 17.507C6.86649 15.8022 7.91976 12.5 12 12.5Z" stroke="currentColor" stroke-linecap="round"></path>
    <path d="M19.2965 15.4162L18.8115 15.5377L19.2965 15.4162ZM13.0871 12.5859L12.7179 12.2488L12.0974 12.9283L13.0051 13.0791L13.0871 12.5859ZM17.1813 16.5L16.701 16.639L16.8055 17H17.1813V16.5ZM15.5 12C16.5277 12 17.2495 12.5027 17.7783 13.2069C18.3177 13.9253 18.6344 14.8306 18.8115 15.5377L19.7816 15.2948C19.5904 14.5315 19.2329 13.4787 18.578 12.6065C17.9126 11.7203 16.9202 11 15.5 11V12ZM13.4563 12.923C13.9567 12.375 14.6107 12 15.5 12V11C14.2828 11 13.3736 11.5306 12.7179 12.2488L13.4563 12.923ZM13.0051 13.0791C15.3056 13.4614 16.2789 15.1801 16.701 16.639L17.6616 16.361C17.1905 14.7326 16.019 12.5663 13.1691 12.0927L13.0051 13.0791ZM18.395 16H17.1813V17H18.395V16ZM18.8115 15.5377C18.8653 15.7526 18.7075 16 18.395 16V17C19.2657 17 20.0152 16.2277 19.7816 15.2948L18.8115 15.5377Z" fill="currentColor"></path>
    <path d="M10.9129 12.5859L10.9949 13.0791L11.9026 12.9283L11.2821 12.2488L10.9129 12.5859ZM4.70343 15.4162L5.18845 15.5377L4.70343 15.4162ZM6.81868 16.5V17H7.19453L7.29898 16.639L6.81868 16.5ZM8.49999 12C9.38931 12 10.0433 12.375 10.5436 12.923L11.2821 12.2488C10.6264 11.5306 9.71723 11 8.49999 11V12ZM5.18845 15.5377C5.36554 14.8306 5.68228 13.9253 6.22167 13.2069C6.75048 12.5027 7.47226 12 8.49999 12V11C7.0798 11 6.08743 11.7203 5.42199 12.6065C4.76713 13.4787 4.40955 14.5315 4.21841 15.2948L5.18845 15.5377ZM5.60498 16C5.29247 16 5.13465 15.7526 5.18845 15.5377L4.21841 15.2948C3.98477 16.2277 4.73424 17 5.60498 17V16ZM6.81868 16H5.60498V17H6.81868V16ZM7.29898 16.639C7.72104 15.1801 8.69435 13.4614 10.9949 13.0791L10.8309 12.0927C7.98101 12.5663 6.8095 14.7326 6.33838 16.361L7.29898 16.639Z" fill="currentColor"></path>
  </symbol>
  <symbol fill="none" xmlns="http://www.w3.org/2000/svg" viewBox="0 0 24 24" id="Pin_light">
    <path d="M19.5 12C19.5 17.018 14.0117 20.4027 12.4249 21.2764C12.1568 21.424 11.8432 21.424 11.5751 21.2764C9.98831 20.4027 4.5 17.018 4.5 12C4.5 7.5 8.13401 4.5 12 4.5C16 4.5 19.5 7.5 19.5 12Z" stroke="currentColor"></path>
    <circle cx="12" cy="12" r="3.5" stroke="currentColor"></circle>
  </symbol>
  <symbol fill="none" xmlns="http://www.w3.org/2000/svg" viewBox="0 0 24 24" id="Waterfall_light">
    <path d="M21 21H3" stroke="currentColor" stroke-linecap="round"></path>
    <path d="M4 16V14" stroke="currentColor" stroke-linecap="round"></path>
    <path d="M12 12V9" stroke="currentColor" stroke-linecap="round"></path>
    <path d="M8 16V10" stroke="currentColor" stroke-linecap="round"></path>
    <path d="M16 13V11" stroke="currentColor" stroke-linecap="round"></path>
    <path d="M20 15V5" stroke="currentColor" stroke-linecap="round"></path>
  </symbol>
  <symbol fill="none" xmlns="http://www.w3.org/2000/svg" viewBox="0 0 24 24" id="gallery-icon">
    <path d="M3 11C3 7.22876 3 5.34315 4.17157 4.17157C5.34315 3 7.22876 3 11 3H13C16.7712 3 18.6569 3 19.8284 4.17157C21 5.34315 21 7.22876 21 11V13C21 16.7712 21 18.6569 19.8284 19.8284C18.6569 21 16.7712 21 13 21H11C7.22876 21 5.34315 21 4.17157 19.8284C3 18.6569 3 16.7712 3 13V11Z" stroke="currentColor" stroke-width="2"></path>
    <path fill-rule="evenodd" clip-rule="evenodd" d="M18.9997 13.5854L18.9794 13.5651C18.5898 13.1754 18.2537 12.8393 17.9536 12.5864C17.6367 12.3193 17.2917 12.0845 16.8665 11.9562C16.3014 11.7857 15.6986 11.7857 15.1335 11.9562C14.7083 12.0845 14.3633 12.3193 14.0464 12.5864C13.7463 12.8393 13.4102 13.1754 13.0206 13.5651L12.9921 13.5936C12.6852 13.9004 12.5046 14.0795 12.3645 14.1954L12.3443 14.2118L12.3317 14.1891C12.2447 14.0295 12.1435 13.7961 11.9726 13.3972L11.9191 13.2726L11.8971 13.2211L11.897 13.221C11.5411 12.3904 11.2422 11.693 10.9464 11.1673C10.6416 10.6257 10.2618 10.1178 9.66982 9.82106C9.17604 9.57352 8.6235 9.46711 8.07311 9.51356C7.41323 9.56924 6.87197 9.89977 6.38783 10.2894C5.98249 10.6157 5.52754 11.0598 5 11.5859V12.9999C5 13.5166 5.0003 13.9848 5.00308 14.411L6.117 13.2971C6.80615 12.6079 7.26639 12.1497 7.64186 11.8475C8.01276 11.5489 8.17233 11.5123 8.24128 11.5065C8.42475 11.491 8.60893 11.5265 8.77352 11.609C8.83539 11.64 8.96994 11.7333 9.20344 12.1482C9.43981 12.5682 9.69693 13.1646 10.0809 14.0605L10.1343 14.1851L10.1506 14.2232C10.2995 14.5707 10.4378 14.8936 10.5759 15.1468C10.7206 15.412 10.9308 15.7299 11.2847 15.9489C11.702 16.2072 12.1997 16.3031 12.6831 16.2182C13.093 16.1463 13.4062 15.9292 13.6391 15.7367C13.8613 15.5529 14.1096 15.3045 14.3769 15.0371L14.377 15.0371L14.4063 15.0078C14.8325 14.5816 15.1083 14.307 15.3353 14.1157C15.5526 13.9325 15.6552 13.8878 15.7112 13.8709C15.8995 13.8141 16.1005 13.8141 16.2888 13.8709C16.3448 13.8878 16.4474 13.9325 16.6647 14.1157C16.8917 14.307 17.1675 14.5816 17.5937 15.0078L18.9441 16.3582C18.9902 15.6404 18.9983 14.7479 18.9997 13.5854Z" fill="currentColor"></path>
    <circle cx="16.5" cy="7.5" r="1.5" fill="currentColor"></circle>
  </symbol>
  <symbol fill="none" xmlns="http://www.w3.org/2000/svg" viewBox="0 0 24 24" id="play-icon">
    <path d="M16.2111 11.1056L9.73666 7.86833C8.93878 7.46939 8 8.04958 8 8.94164V15.0584C8 15.9504 8.93878 16.5306 9.73666 16.1317L16.2111 12.8944C16.9482 12.5259 16.9482 11.4741 16.2111 11.1056Z" stroke="currentColor" stroke-width="2" stroke-linecap="round" stroke-linejoin="round"></path>
    <circle cx="12" cy="12" r="9" stroke="currentColor" stroke-width="2"></circle>
  </symbol>
  <symbol version="1.1" xmlns="http://www.w3.org/2000/svg" viewBox="0 0 24 24" id="calendar-icon">
    <path d="m4.387 7.577v-2.602c0-0.389 0.316-0.705 0.706-0.705h2.023v-0.939h-2.023c-0.909 0-1.647 0.736-1.647 1.644v5.402c0 0.259 0.211 0.47 0.47 0.47s0.47-0.21 0.47-0.47v-1.991h12.374c0.224 0 0.405-0.181 0.405-0.404s-0.181-0.404-0.405-0.404h-12.374zm2.852-2.498c-0.079-0.177-0.124-0.373-0.124-0.579v-1.398c0-0.206 0.044-0.402 0.124-0.579 0.222-0.493 0.717-0.836 1.293-0.836h0.177c0.576 0 1.072 0.343 1.293 0.836 0.079 0.176 0.123 0.371 0.124 0.576v3e-3 0.229h5.599v0.939h-5.599v0.229 3e-3c-0 0.205-0.045 0.4-0.124 0.576-0.222 0.493-0.717 0.836-1.293 0.836h-0.177c-0.576 0-1.072-0.343-1.293-0.836zm0.686-0.579c0 0.335 0.272 0.606 0.607 0.606h0.177c0.335 0 0.606-0.27 0.607-0.604v-1.402c-1e-3 -0.334-0.272-0.604-0.607-0.604h-0.177c-0.335 0-0.607 0.271-0.607 0.606v1.398zm10.812-1.169h1.976c0.909 0 1.647 0.736 1.647 1.644v13.058c0 0.908-0.737 1.644-1.647 1.644h-7.151c-0.26 0-0.47-0.21-0.47-0.47s0.211-0.47 0.47-0.47h7.151c0.39 0 0.706-0.315 0.706-0.705v-9.647h-1.788c-0.224 0-0.405-0.181-0.405-0.404s0.181-0.404 0.405-0.404h1.788v-2.602c0-0.389-0.316-0.705-0.706-0.705h-1.976v0.229 2e-3c-0 0.206-0.044 0.401-0.124 0.577-0.222 0.493-0.717 0.836-1.293 0.836h-0.177c-0.576 0-1.072-0.343-1.293-0.836-0.08-0.177-0.124-0.373-0.124-0.579v-1.398c0-0.206 0.044-0.402 0.124-0.579 0.222-0.493 0.717-0.836 1.293-0.836h0.177c0.576 0 1.072 0.343 1.293 0.836 0.079 0.176 0.123 0.371 0.124 0.577v2e-3 0.229zm-0.81 1.171v-1e-3 -1.398-1e-3c-1e-3 -0.334-0.272-0.605-0.607-0.605h-0.177c-0.335 0-0.607 0.271-0.607 0.606v1.398c0 0.335 0.272 0.606 0.607 0.606h0.177c0.335 0 0.607-0.271 0.607-0.605zm-5.27 8.51-4.702 4.694c-0.393 0.392-1.03 0.395-1.426 5e-3l-1.815-1.785zm-7.943 2.914c-0.159-0.157-0.161-0.413-4e-3 -0.572s0.413-0.161 0.572-4e-3l1.815 1.785c0.079 0.078 0.207 0.077 0.285-1e-3l4.702-4.694c0.158-0.158 0.414-0.158 0.572 0s0.158 0.414 0 0.572l-1e-3 1e-3zm4.359-3.107c-0.109 0.213-0.37 0.295-0.593 0.208-0.794-0.31-1.666-0.381-2.505-0.199-0.982 0.213-1.859 0.76-2.482 1.546s-0.954 1.765-0.936 2.767c0.018 1.003 0.384 1.968 1.035 2.732s1.547 1.278 2.536 1.456 2.008 8e-3 2.886-0.481 1.558-1.266 1.925-2.199c0.314-0.798 0.383-1.669 0.204-2.501-0.051-0.234 0.072-0.478 0.3-0.552s0.475 0.051 0.529 0.284c0.239 1.024 0.163 2.101-0.225 3.086-0.441 1.12-1.258 2.052-2.31 2.639s-2.276 0.79-3.463 0.577-2.262-0.831-3.043-1.747-1.22-2.075-1.242-3.278 0.375-2.377 1.123-3.321 1.8-1.6 2.978-1.856c1.036-0.225 2.113-0.129 3.087 0.271 0.222 0.091 0.306 0.354 0.197 0.567z" fill="currentColor"></path>
  </symbol>
</svg>