<svg width="702" height="273" viewBox="0 0 702 273" fill="none" xmlns="http://www.w3.org/2000/svg">
<path d="M124.605 238.666C124.605 245.829 106.842 251.636 84.93 251.636C63.0179 251.636 45.2547 245.829 45.2547 238.666C45.2547 231.502 63.0179 225.695 84.93 225.695C106.842 225.695 124.605 231.502 124.605 238.666Z" fill="#273B4A"/>
<path d="M43.9168 210.318C43.3258 209.839 42.5306 209.647 41.7899 209.823C16.9141 215.738 0.238281 226.612 0.238281 239.047C0.238281 257.799 38.156 273 84.93 273C131.704 273 169.622 257.799 169.622 239.047C169.622 226.735 153.276 215.954 128.81 210.001C128.068 209.82 127.269 210.01 126.675 210.491C125.044 211.81 125.682 214.455 127.72 214.949C133.414 216.33 138.632 217.973 143.264 219.83C150.638 222.786 156.283 226.187 159.997 229.708C163.73 233.245 165.044 236.421 165.044 239.047C165.044 241.673 163.73 244.849 159.997 248.386C156.283 251.907 150.638 255.308 143.264 258.264C128.554 264.161 107.93 267.907 84.93 267.907C61.9294 267.907 41.3058 264.161 26.5959 258.264C19.2216 255.308 13.5771 251.907 9.86268 248.386C6.13029 244.849 4.81621 241.673 4.81621 239.047C4.81621 236.421 6.13029 233.245 9.86268 229.708C13.5771 226.187 19.2216 222.786 26.5959 219.83C31.4212 217.896 36.8829 216.193 42.856 214.777C44.9009 214.293 45.5481 211.643 43.9168 210.318Z" fill="#ff3050"/>
<path d="M145.044 77.3215C138.485 89.5845 131.395 93.5705 121.547 99.0085C111.698 104.447 101.45 107.94 90.8038 109.49C71.3099 112.26 54.9408 112.64 41.6965 110.631C38.7908 121.636 38.7899 130.535 41.6938 137.328C44.5978 144.121 49.368 148.684 56.0045 151.016C74.8436 157.638 101.258 139.521 123.766 121.436C158.049 93.8902 175.222 70.7042 175.222 70.7042C175.222 70.7042 166.066 92.4493 136.31 127.165C119.691 146.554 99.8973 161.633 81.2938 171.45C62.9796 181.128 47.186 183.635 33.913 178.97C20.6401 174.305 11.9501 165.839 7.84316 153.572C3.95031 141.38 4.86307 127.149 10.5814 110.879C18.4818 88.4007 31.8815 69.7793 50.7806 55.015C61.0287 47.0716 75.7321 38.2269 90.4293 34.7335C105.416 31.1013 123.988 29.0764 137.713 35.972C151.437 42.8677 151.602 65.0585 145.044 77.3215ZM110.858 54.483C101.867 51.3228 90.7111 53.2948 77.3906 60.3988C64.1454 67.2888 53.7522 79.7511 46.211 97.7858C65.635 99.3211 81.6369 97.2484 94.2165 91.5676C107.086 85.7481 115.062 78.4497 118.147 69.6724C119.276 66.4612 119.253 63.4466 118.079 60.6286C116.905 57.8106 114.498 55.7621 110.858 54.483Z" fill="#273B4A"/>
<path d="M216.302 0.693567L216.126 0.636913C214.703 0.353415 212.977 0.633595 211.135 1.44287C208.208 2.72925 205.612 5.05418 204.654 6.58615L197.112 18.6783L178.068 32.3707C177.901 32.4916 177.762 32.6386 177.653 32.8131C177.369 33.2749 177.345 33.8591 177.589 34.3411C177.943 35.0317 178.733 35.3573 179.46 35.115L188.736 32.1057L182.675 41.8214C179.577 41.7708 176.625 41.6983 173.9 41.6098C169.676 41.4707 167.269 42.1774 166.67 43.7186C166.045 45.3233 167.608 46.9093 168.261 47.3153L181.354 54.4637C181.815 54.7501 182.24 54.8432 182.658 54.7437C183.349 54.572 183.737 53.9426 184.137 53.2756L185.61 50.8923L194.838 40.0395L195.816 46.9259C195.927 47.6883 196.565 48.2491 197.337 48.2632C197.557 48.2672 197.781 48.2208 197.984 48.1316C198.274 48.0044 198.513 47.7966 198.684 47.529C198.794 47.3557 198.862 47.1698 198.896 46.9655L201.126 33.8128L203.121 27.2034L215.868 6.76876C216.063 6.45697 216.259 6.16293 216.454 5.86698C216.906 5.19058 217.333 4.54973 217.571 3.93058C218.088 2.60932 217.691 1.56267 216.302 0.693567Z" fill="#273B4A"/>
<path fill-rule="evenodd" clip-rule="evenodd" d="M178.39 100.103C178.554 157.201 85.7055 239.615 85.7055 239.615C85.7055 239.615 60.673 217.378 36.675 187.999C49.7054 192.126 65.1126 189.49 82.8965 180.092C101.5 170.275 118.875 155.446 136.348 136.823C154.086 117.917 167.826 95.4581 176.628 79.0072C177.772 85.8162 178.369 92.8721 178.39 100.103Z" fill="#ff3050"/>
<path d="M299.734 96.9635C300.99 96.9635 302.005 97.1085 302.778 97.3984C303.648 97.6884 304.325 98.2682 304.808 99.138C305.291 99.9112 305.533 101.216 305.533 103.052C305.533 104.792 305.243 106.096 304.663 106.966C304.18 107.836 303.503 108.416 302.633 108.706C301.764 108.899 300.7 108.996 299.444 108.996H269.436V191.772C269.436 193.029 269.242 194.14 268.856 195.107C268.566 196.073 267.938 196.798 266.971 197.281C266.102 197.861 264.748 198.151 262.912 198.151C260.979 198.151 259.53 197.861 258.563 197.281C257.693 196.798 257.114 196.073 256.824 195.107C256.63 194.044 256.534 192.884 256.534 191.627V108.996H226.09C224.834 108.996 223.771 108.899 222.901 108.706C222.031 108.416 221.355 107.836 220.872 106.966C220.388 106.096 220.147 104.792 220.147 103.052C220.147 101.216 220.34 99.9112 220.727 99.138C221.21 98.2682 221.886 97.6884 222.756 97.3984C223.723 97.1085 224.786 96.9635 225.945 96.9635H299.734Z" fill="#ff3050"/>
<path d="M309.004 198.151C307.168 198.151 305.766 197.861 304.8 197.281C303.93 196.798 303.35 196.073 303.06 195.107C302.867 194.044 302.77 192.836 302.77 191.482V134.365C302.77 132.916 302.915 131.707 303.205 130.741C303.495 129.775 304.075 129.098 304.945 128.711C305.815 128.228 307.216 127.987 309.149 127.987C310.889 127.987 312.193 128.228 313.063 128.711C314.03 129.098 314.658 129.726 314.948 130.596C315.334 131.369 315.528 132.287 315.528 133.35L314.948 137.699C315.624 136.443 316.397 135.187 317.267 133.93C318.234 132.674 319.393 131.562 320.746 130.596C322.196 129.533 323.887 128.663 325.82 127.987C327.85 127.31 330.314 126.972 333.214 126.972C334.663 126.972 336.016 127.117 337.273 127.407C338.626 127.6 339.882 127.938 341.042 128.422C342.298 128.905 343.361 129.485 344.231 130.161C345.101 130.741 345.778 131.418 346.261 132.191C346.841 132.867 347.131 133.689 347.131 134.655C347.131 136.781 346.454 138.618 345.101 140.164C343.748 141.614 342.347 142.338 340.897 142.338C339.641 142.338 338.722 142.193 338.143 141.904C337.563 141.517 336.983 141.13 336.403 140.744C335.92 140.357 335.195 140.019 334.228 139.729C333.262 139.342 331.716 139.149 329.589 139.149C328.14 139.149 326.593 139.439 324.95 140.019C323.404 140.599 321.906 141.469 320.456 142.628C319.007 143.691 317.799 145.093 316.832 146.832C315.962 148.572 315.528 150.602 315.528 152.921V191.772C315.528 193.125 315.383 194.285 315.093 195.252C314.803 196.218 314.175 196.943 313.208 197.426C312.338 197.909 310.937 198.151 309.004 198.151Z" fill="#ff3050"/>
<path d="M368.622 198.151C366.786 198.151 365.384 197.861 364.418 197.281C363.548 196.798 362.968 196.073 362.678 195.107C362.388 194.14 362.243 192.98 362.243 191.627V134.365C362.243 133.012 362.388 131.852 362.678 130.886C362.968 129.92 363.548 129.195 364.418 128.711C365.384 128.228 366.834 127.987 368.767 127.987C370.603 127.987 371.956 128.277 372.826 128.856C373.696 129.34 374.276 130.064 374.566 131.031C374.856 131.997 375.001 133.205 375.001 134.655V191.772C375.001 193.125 374.856 194.285 374.566 195.252C374.276 196.218 373.648 196.943 372.681 197.426C371.811 197.909 370.458 198.151 368.622 198.151ZM368.622 110.59C366.496 110.59 364.901 110.301 363.838 109.721C362.775 109.044 362.05 108.126 361.664 106.966C361.374 105.807 361.229 104.454 361.229 102.907C361.229 101.361 361.422 100.056 361.809 98.9931C362.195 97.8333 362.92 97.0118 363.983 96.5286C365.046 95.9487 366.641 95.6588 368.767 95.6588C370.797 95.6588 372.343 95.9487 373.406 96.5286C374.469 97.1085 375.146 97.9783 375.435 99.138C375.822 100.298 376.015 101.651 376.015 103.197C376.015 104.743 375.822 106.096 375.435 107.256C375.146 108.319 374.469 109.141 373.406 109.721C372.343 110.301 370.748 110.59 368.622 110.59Z" fill="#ff3050"/>
<path d="M429.455 197.571C424.72 197.571 420.419 196.701 416.553 194.962C412.687 193.222 409.401 190.806 406.695 187.713C403.989 184.524 401.863 180.803 400.317 176.551C398.867 172.298 398.191 167.611 398.287 162.489C398.287 157.463 399.012 152.824 400.462 148.572C401.911 144.32 403.989 140.647 406.695 137.554C409.498 134.365 412.784 131.949 416.553 130.306C420.419 128.566 424.72 127.697 429.455 127.697C433.901 127.697 438.057 128.566 441.922 130.306C445.885 132.046 449.316 134.51 452.215 137.699C455.211 140.792 457.531 144.513 459.174 148.862C460.913 153.211 461.783 157.898 461.783 162.924C461.783 167.949 460.913 172.588 459.174 176.841C457.531 181.093 455.211 184.766 452.215 187.858C449.316 190.951 445.885 193.367 441.922 195.107C438.057 196.75 433.901 197.571 429.455 197.571ZM399.302 226.71C397.466 226.71 396.064 226.42 395.098 225.84C394.228 225.357 393.6 224.632 393.213 223.665C392.923 222.699 392.778 221.539 392.778 220.186V134.51C392.778 133.157 392.923 131.997 393.213 131.031C393.503 130.064 394.083 129.34 394.953 128.856C395.919 128.277 397.321 127.987 399.157 127.987C401.283 127.987 402.829 128.325 403.796 129.001C404.859 129.678 405.487 130.886 405.681 132.626V220.041C405.777 221.394 405.681 222.554 405.391 223.52C405.101 224.583 404.472 225.357 403.506 225.84C402.636 226.42 401.235 226.71 399.302 226.71ZM427.571 185.684C431.63 185.684 435.302 184.717 438.588 182.784C441.874 180.755 444.435 178 446.271 174.521C448.204 171.042 449.171 167.08 449.171 162.634C449.171 158.092 448.204 154.129 446.271 150.747C444.435 147.364 441.874 144.755 438.588 142.918C435.399 140.985 431.726 140.019 427.571 140.019C423.512 140.019 419.839 140.985 416.553 142.918C413.364 144.851 410.803 147.509 408.87 150.892C407.034 154.274 406.115 158.188 406.115 162.634C406.115 167.08 407.034 171.042 408.87 174.521C410.803 178 413.364 180.755 416.553 182.784C419.839 184.717 423.512 185.684 427.571 185.684Z" fill="#ff3050"/>
<path d="M481.867 198.006C478.871 198.006 476.31 196.991 474.183 194.962C472.154 192.836 471.139 190.226 471.139 187.134C471.139 185.684 471.381 184.282 471.864 182.929C472.444 181.576 473.314 180.368 474.473 179.305L507.236 147.267H485.201C483.365 147.267 481.577 147.122 479.837 146.832C478.194 146.446 476.841 145.479 475.778 143.933C474.715 142.387 474.183 139.874 474.183 136.395C474.183 132.819 474.715 130.306 475.778 128.856C476.841 127.31 478.194 126.392 479.837 126.102C481.577 125.716 483.365 125.522 485.201 125.522H530.576C533.669 125.522 536.23 126.537 538.259 128.567C540.289 130.596 541.304 133.157 541.304 136.25C541.304 137.796 541.014 139.246 540.434 140.599C539.951 141.952 539.226 143.063 538.259 143.933L506.076 176.116H532.316C534.248 176.116 536.036 176.309 537.679 176.696C539.322 177.082 540.627 178.049 541.593 179.595C542.657 181.142 543.188 183.703 543.188 187.278C543.188 190.758 542.657 193.27 541.593 194.817C540.53 196.363 539.177 197.281 537.534 197.571C535.891 197.861 534.103 198.006 532.171 198.006H481.867Z" fill="#273B4A"/>
<path d="M560.155 198.006C557.159 198.006 554.598 196.991 552.472 194.962C550.442 192.836 549.427 190.226 549.427 187.134C549.427 185.684 549.669 184.282 550.152 182.929C550.732 181.576 551.602 180.368 552.762 179.305L585.524 147.267H563.489C561.653 147.267 559.865 147.122 558.125 146.832C556.482 146.446 555.129 145.479 554.066 143.933C553.003 142.387 552.472 139.874 552.472 136.395C552.472 132.819 553.003 130.306 554.066 128.856C555.129 127.31 556.482 126.392 558.125 126.102C559.865 125.716 561.653 125.522 563.489 125.522H608.864C611.957 125.522 614.518 126.537 616.547 128.567C618.577 130.596 619.592 133.157 619.592 136.25C619.592 137.796 619.302 139.246 618.722 140.599C618.239 141.952 617.514 143.063 616.547 143.933L584.365 176.116H610.604C612.537 176.116 614.325 176.309 615.968 176.696C617.611 177.082 618.915 178.049 619.882 179.595C620.945 181.142 621.476 183.703 621.476 187.278C621.476 190.758 620.945 193.27 619.882 194.817C618.819 196.363 617.466 197.281 615.823 197.571C614.18 197.861 612.392 198.006 610.459 198.006H560.155Z" fill="#273B4A"/>
<path d="M648.79 227.29C644.828 225.55 642.508 223.617 641.832 221.491C641.252 219.365 641.784 216.514 643.427 212.938L679.813 131.611C681.456 127.842 683.244 125.619 685.177 124.942C687.207 124.169 690.203 124.556 694.165 126.102C698.031 127.938 700.254 129.871 700.834 131.901C701.51 133.93 701.075 136.636 699.529 140.019L662.997 221.926C661.354 225.695 659.566 227.966 657.633 228.739C655.7 229.512 652.753 229.029 648.79 227.29ZM661.403 193.512L627.335 141.614C625.209 138.424 624.339 135.767 624.726 133.64C625.209 131.514 627.142 129.34 630.524 127.117C634.294 124.797 637.193 123.928 639.222 124.507C641.349 124.991 643.475 126.875 645.601 130.161L670.68 168.578L661.403 193.512Z" fill="#273B4A"/>
</svg>
